<mxfile host="app.diagrams.net" agent="Mozilla/5.0 (Macintosh; Intel Mac OS X 10_15_7) AppleWebKit/605.1.15 (KHTML, like Gecko) Version/17.5 Safari/605.1.15" version="26.2.12">
  <diagram name="第 1 页" id="XTs-wqm_MpcBQXB_Leg-">
    <mxGraphModel dx="1428" dy="807" grid="1" gridSize="10" guides="1" tooltips="1" connect="1" arrows="1" fold="1" page="1" pageScale="1" pageWidth="827" pageHeight="1169" math="0" shadow="0">
      <root>
        <mxCell id="0" />
        <mxCell id="1" parent="0" />
        <mxCell id="wH4gtBrT2uaNQ040a4KH-2" value="Deploy" style="shape=umlLifeline;perimeter=lifelinePerimeter;whiteSpace=wrap;html=1;container=1;dropTarget=0;collapsible=0;recursiveResize=0;outlineConnect=0;portConstraint=eastwest;newEdgeStyle={&quot;curved&quot;:0,&quot;rounded&quot;:0};size=40;fillColor=#f5f5f5;fontColor=#333333;strokeColor=#666666;fontStyle=1;fontSize=13;" vertex="1" parent="1">
          <mxGeometry x="630" y="350" width="70" height="740" as="geometry" />
        </mxCell>
        <mxCell id="wH4gtBrT2uaNQ040a4KH-3" value="" style="html=1;points=[[0,0,0,0,5],[0,1,0,0,-5],[1,0,0,0,5],[1,1,0,0,-5]];perimeter=orthogonalPerimeter;outlineConnect=0;targetShapes=umlLifeline;portConstraint=eastwest;newEdgeStyle={&quot;curved&quot;:0,&quot;rounded&quot;:0};" vertex="1" parent="wH4gtBrT2uaNQ040a4KH-2">
          <mxGeometry x="30" y="111" width="10" height="620" as="geometry" />
        </mxCell>
        <mxCell id="wH4gtBrT2uaNQ040a4KH-4" value="" style="html=1;points=[[0,0,0,0,5],[0,1,0,0,-5],[1,0,0,0,5],[1,1,0,0,-5]];perimeter=orthogonalPerimeter;outlineConnect=0;targetShapes=umlLifeline;portConstraint=eastwest;newEdgeStyle={&quot;curved&quot;:0,&quot;rounded&quot;:0};" vertex="1" parent="wH4gtBrT2uaNQ040a4KH-2">
          <mxGeometry x="35" y="181" width="10" height="20" as="geometry" />
        </mxCell>
        <mxCell id="wH4gtBrT2uaNQ040a4KH-5" value="判断模型框架" style="html=1;align=left;spacingLeft=2;endArrow=block;rounded=0;edgeStyle=orthogonalEdgeStyle;curved=0;rounded=0;" edge="1" parent="wH4gtBrT2uaNQ040a4KH-2">
          <mxGeometry x="0.0041" relative="1" as="geometry">
            <mxPoint x="40" y="161" as="sourcePoint" />
            <Array as="points">
              <mxPoint x="70" y="191" />
            </Array>
            <mxPoint x="45" y="191" as="targetPoint" />
            <mxPoint as="offset" />
          </mxGeometry>
        </mxCell>
        <mxCell id="wH4gtBrT2uaNQ040a4KH-6" value="" style="html=1;points=[[0,0,0,0,5],[0,1,0,0,-5],[1,0,0,0,5],[1,1,0,0,-5]];perimeter=orthogonalPerimeter;outlineConnect=0;targetShapes=umlLifeline;portConstraint=eastwest;newEdgeStyle={&quot;curved&quot;:0,&quot;rounded&quot;:0};" vertex="1" parent="wH4gtBrT2uaNQ040a4KH-2">
          <mxGeometry x="35" y="671" width="10" height="20" as="geometry" />
        </mxCell>
        <mxCell id="wH4gtBrT2uaNQ040a4KH-7" value="生成资源动态部署配置" style="html=1;align=left;spacingLeft=2;endArrow=block;rounded=0;edgeStyle=orthogonalEdgeStyle;curved=0;rounded=0;" edge="1" parent="wH4gtBrT2uaNQ040a4KH-2">
          <mxGeometry x="0.0045" relative="1" as="geometry">
            <mxPoint x="40" y="652" as="sourcePoint" />
            <Array as="points">
              <mxPoint x="70" y="682" />
            </Array>
            <mxPoint x="45" y="682" as="targetPoint" />
            <mxPoint as="offset" />
          </mxGeometry>
        </mxCell>
        <mxCell id="wH4gtBrT2uaNQ040a4KH-8" value="K8S API&lt;div&gt;Server&lt;/div&gt;" style="shape=umlLifeline;perimeter=lifelinePerimeter;whiteSpace=wrap;html=1;container=1;dropTarget=0;collapsible=0;recursiveResize=0;outlineConnect=0;portConstraint=eastwest;newEdgeStyle={&quot;curved&quot;:0,&quot;rounded&quot;:0};size=40;fillColor=#f5f5f5;fontColor=#333333;strokeColor=#666666;fontStyle=1;fontSize=13;" vertex="1" parent="1">
          <mxGeometry x="1112" y="352" width="70" height="739" as="geometry" />
        </mxCell>
        <mxCell id="wH4gtBrT2uaNQ040a4KH-9" value="" style="html=1;points=[[0,0,0,0,5],[0,1,0,0,-5],[1,0,0,0,5],[1,1,0,0,-5]];perimeter=orthogonalPerimeter;outlineConnect=0;targetShapes=umlLifeline;portConstraint=eastwest;newEdgeStyle={&quot;curved&quot;:0,&quot;rounded&quot;:0};" vertex="1" parent="wH4gtBrT2uaNQ040a4KH-8">
          <mxGeometry x="30" y="714" width="10" height="17" as="geometry" />
        </mxCell>
        <mxCell id="wH4gtBrT2uaNQ040a4KH-10" value="模型转换&lt;div&gt;模块&lt;/div&gt;" style="shape=umlLifeline;perimeter=lifelinePerimeter;whiteSpace=wrap;html=1;container=1;dropTarget=0;collapsible=0;recursiveResize=0;outlineConnect=0;portConstraint=eastwest;newEdgeStyle={&quot;curved&quot;:0,&quot;rounded&quot;:0};size=40;fillColor=#f5f5f5;fontColor=#333333;strokeColor=#666666;fontStyle=1;fontSize=13;" vertex="1" parent="1">
          <mxGeometry x="743" y="351" width="70" height="740" as="geometry" />
        </mxCell>
        <mxCell id="wH4gtBrT2uaNQ040a4KH-11" value="" style="html=1;points=[[0,0,0,0,5],[0,1,0,0,-5],[1,0,0,0,5],[1,1,0,0,-5]];perimeter=orthogonalPerimeter;outlineConnect=0;targetShapes=umlLifeline;portConstraint=eastwest;newEdgeStyle={&quot;curved&quot;:0,&quot;rounded&quot;:0};" vertex="1" parent="wH4gtBrT2uaNQ040a4KH-10">
          <mxGeometry x="30" y="258" width="10" height="223" as="geometry" />
        </mxCell>
        <mxCell id="wH4gtBrT2uaNQ040a4KH-12" value="" style="html=1;points=[[0,0,0,0,5],[0,1,0,0,-5],[1,0,0,0,5],[1,1,0,0,-5]];perimeter=orthogonalPerimeter;outlineConnect=0;targetShapes=umlLifeline;portConstraint=eastwest;newEdgeStyle={&quot;curved&quot;:0,&quot;rounded&quot;:0};" vertex="1" parent="wH4gtBrT2uaNQ040a4KH-10">
          <mxGeometry x="35" y="370" width="10" height="20" as="geometry" />
        </mxCell>
        <mxCell id="wH4gtBrT2uaNQ040a4KH-13" value="模型转换" style="html=1;align=left;spacingLeft=2;endArrow=block;rounded=0;edgeStyle=orthogonalEdgeStyle;curved=0;rounded=0;" edge="1" parent="wH4gtBrT2uaNQ040a4KH-10">
          <mxGeometry x="0.0045" relative="1" as="geometry">
            <mxPoint x="40" y="350" as="sourcePoint" />
            <Array as="points">
              <mxPoint x="70" y="380" />
            </Array>
            <mxPoint x="45" y="380" as="targetPoint" />
            <mxPoint as="offset" />
          </mxGeometry>
        </mxCell>
        <mxCell id="wH4gtBrT2uaNQ040a4KH-14" value="alt" style="shape=umlFrame;whiteSpace=wrap;html=1;pointerEvents=0;width=50;height=20;" vertex="1" parent="1">
          <mxGeometry x="604" y="481" width="336" height="371" as="geometry" />
        </mxCell>
        <mxCell id="wH4gtBrT2uaNQ040a4KH-15" value="" style="endArrow=none;dashed=1;html=1;rounded=0;exitX=0.008;exitY=0.423;exitDx=0;exitDy=0;exitPerimeter=0;" edge="1" parent="1">
          <mxGeometry width="50" height="50" relative="1" as="geometry">
            <mxPoint x="604" y="558.4870000000001" as="sourcePoint" />
            <mxPoint x="940" y="559" as="targetPoint" />
          </mxGeometry>
        </mxCell>
        <mxCell id="wH4gtBrT2uaNQ040a4KH-16" value="&lt;b&gt;[是指定框架]&lt;/b&gt;" style="text;html=1;align=center;verticalAlign=middle;resizable=0;points=[];autosize=1;strokeColor=none;fillColor=none;" vertex="1" parent="1">
          <mxGeometry x="678.98" y="481" width="90" height="30" as="geometry" />
        </mxCell>
        <mxCell id="wH4gtBrT2uaNQ040a4KH-17" value="Controller" style="shape=umlLifeline;perimeter=lifelinePerimeter;whiteSpace=wrap;html=1;container=1;dropTarget=0;collapsible=0;recursiveResize=0;outlineConnect=0;portConstraint=eastwest;newEdgeStyle={&quot;curved&quot;:0,&quot;rounded&quot;:0};size=40;fillColor=#f5f5f5;fontColor=#333333;strokeColor=#666666;fontStyle=1;fontSize=13;" vertex="1" parent="1">
          <mxGeometry x="402" y="351" width="70" height="740" as="geometry" />
        </mxCell>
        <mxCell id="wH4gtBrT2uaNQ040a4KH-18" value="" style="html=1;points=[[0,0,0,0,5],[0,1,0,0,-5],[1,0,0,0,5],[1,1,0,0,-5]];perimeter=orthogonalPerimeter;outlineConnect=0;targetShapes=umlLifeline;portConstraint=eastwest;newEdgeStyle={&quot;curved&quot;:0,&quot;rounded&quot;:0};" vertex="1" parent="wH4gtBrT2uaNQ040a4KH-17">
          <mxGeometry x="30" y="60" width="10" height="50" as="geometry" />
        </mxCell>
        <mxCell id="wH4gtBrT2uaNQ040a4KH-19" value="发送部署AI模型消息" style="html=1;verticalAlign=bottom;endArrow=block;curved=0;rounded=0;" edge="1" parent="1" source="wH4gtBrT2uaNQ040a4KH-18">
          <mxGeometry x="-0.0062" width="80" relative="1" as="geometry">
            <mxPoint x="440" y="431" as="sourcePoint" />
            <mxPoint x="545" y="431" as="targetPoint" />
            <mxPoint as="offset" />
          </mxGeometry>
        </mxCell>
        <mxCell id="wH4gtBrT2uaNQ040a4KH-20" value="" style="shape=umlLifeline;perimeter=lifelinePerimeter;whiteSpace=wrap;html=1;container=1;dropTarget=0;collapsible=0;recursiveResize=0;outlineConnect=0;portConstraint=eastwest;newEdgeStyle={&quot;curved&quot;:0,&quot;rounded&quot;:0};participant=umlActor;" vertex="1" parent="1">
          <mxGeometry x="320" y="352" width="20" height="739" as="geometry" />
        </mxCell>
        <mxCell id="wH4gtBrT2uaNQ040a4KH-21" value="" style="html=1;points=[[0,0,0,0,5],[0,1,0,0,-5],[1,0,0,0,5],[1,1,0,0,-5]];perimeter=orthogonalPerimeter;outlineConnect=0;targetShapes=umlLifeline;portConstraint=eastwest;newEdgeStyle={&quot;curved&quot;:0,&quot;rounded&quot;:0};" vertex="1" parent="wH4gtBrT2uaNQ040a4KH-20">
          <mxGeometry x="5" y="58.5" width="10" height="31.5" as="geometry" />
        </mxCell>
        <mxCell id="wH4gtBrT2uaNQ040a4KH-22" value="发起部署AI模型请求" style="html=1;verticalAlign=bottom;endArrow=block;curved=0;rounded=0;" edge="1" parent="1">
          <mxGeometry x="-0.0062" width="80" relative="1" as="geometry">
            <mxPoint x="335.0000000000001" y="411.2499999999999" as="sourcePoint" />
            <mxPoint x="432" y="411.2499999999999" as="targetPoint" />
            <mxPoint as="offset" />
          </mxGeometry>
        </mxCell>
        <mxCell id="wH4gtBrT2uaNQ040a4KH-23" value="&lt;b&gt;[不是&lt;/b&gt;&lt;b&gt;指定框架&lt;/b&gt;&lt;b&gt;]&lt;/b&gt;" style="text;html=1;align=center;verticalAlign=middle;resizable=0;points=[];autosize=1;strokeColor=none;fillColor=none;" vertex="1" parent="1">
          <mxGeometry x="673.98" y="561" width="100" height="30" as="geometry" />
        </mxCell>
        <mxCell id="wH4gtBrT2uaNQ040a4KH-24" value="发送模型转换请求" style="html=1;verticalAlign=bottom;endArrow=block;curved=0;rounded=0;" edge="1" parent="1" target="wH4gtBrT2uaNQ040a4KH-11">
          <mxGeometry x="-0.0062" width="80" relative="1" as="geometry">
            <mxPoint x="670" y="609" as="sourcePoint" />
            <mxPoint x="774" y="609" as="targetPoint" />
            <mxPoint as="offset" />
          </mxGeometry>
        </mxCell>
        <mxCell id="wH4gtBrT2uaNQ040a4KH-25" value="返回任务ID" style="html=1;verticalAlign=bottom;endArrow=open;dashed=1;endSize=8;curved=0;rounded=0;" edge="1" parent="1" source="wH4gtBrT2uaNQ040a4KH-11">
          <mxGeometry relative="1" as="geometry">
            <mxPoint x="780" y="631" as="sourcePoint" />
            <mxPoint x="670.98" y="632" as="targetPoint" />
          </mxGeometry>
        </mxCell>
        <mxCell id="wH4gtBrT2uaNQ040a4KH-26" value="返回转换后模型信息" style="html=1;verticalAlign=bottom;endArrow=open;dashed=1;endSize=8;curved=0;rounded=0;" edge="1" parent="1" source="wH4gtBrT2uaNQ040a4KH-11">
          <mxGeometry x="-0.0004" relative="1" as="geometry">
            <mxPoint x="770" y="832" as="sourcePoint" />
            <mxPoint x="669.48" y="832" as="targetPoint" />
            <mxPoint as="offset" />
          </mxGeometry>
        </mxCell>
        <mxCell id="wH4gtBrT2uaNQ040a4KH-27" value="部署资源" style="html=1;verticalAlign=bottom;endArrow=block;curved=0;rounded=0;" edge="1" parent="1" source="wH4gtBrT2uaNQ040a4KH-3" target="wH4gtBrT2uaNQ040a4KH-9">
          <mxGeometry x="-0.0054" width="80" relative="1" as="geometry">
            <mxPoint x="680.4899999999999" y="1066" as="sourcePoint" />
            <mxPoint x="865" y="1066" as="targetPoint" />
            <mxPoint as="offset" />
          </mxGeometry>
        </mxCell>
        <mxCell id="wH4gtBrT2uaNQ040a4KH-28" value="Manager&lt;br&gt;（主节点）" style="shape=umlLifeline;perimeter=lifelinePerimeter;whiteSpace=wrap;html=1;container=1;dropTarget=0;collapsible=0;recursiveResize=0;outlineConnect=0;portConstraint=eastwest;newEdgeStyle={&quot;curved&quot;:0,&quot;rounded&quot;:0};size=40;fillColor=#f5f5f5;fontColor=#333333;strokeColor=#666666;fontStyle=1;fontSize=13;" vertex="1" parent="1">
          <mxGeometry x="931" y="352" width="70" height="740" as="geometry" />
        </mxCell>
        <mxCell id="wH4gtBrT2uaNQ040a4KH-29" value="" style="html=1;points=[[0,0,0,0,5],[0,1,0,0,-5],[1,0,0,0,5],[1,1,0,0,-5]];perimeter=orthogonalPerimeter;outlineConnect=0;targetShapes=umlLifeline;portConstraint=eastwest;newEdgeStyle={&quot;curved&quot;:0,&quot;rounded&quot;:0};" vertex="1" parent="wH4gtBrT2uaNQ040a4KH-28">
          <mxGeometry x="30" y="530" width="10" height="41" as="geometry" />
        </mxCell>
        <mxCell id="wH4gtBrT2uaNQ040a4KH-30" value="Manager" style="shape=umlLifeline;perimeter=lifelinePerimeter;whiteSpace=wrap;html=1;container=1;dropTarget=0;collapsible=0;recursiveResize=0;outlineConnect=0;portConstraint=eastwest;newEdgeStyle={&quot;curved&quot;:0,&quot;rounded&quot;:0};size=40;fillColor=#f5f5f5;fontColor=#333333;strokeColor=#666666;fontStyle=1;fontSize=13;" vertex="1" parent="1">
          <mxGeometry x="1024" y="352" width="70" height="740" as="geometry" />
        </mxCell>
        <mxCell id="wH4gtBrT2uaNQ040a4KH-31" value="" style="html=1;points=[[0,0,0,0,5],[0,1,0,0,-5],[1,0,0,0,5],[1,1,0,0,-5]];perimeter=orthogonalPerimeter;outlineConnect=0;targetShapes=umlLifeline;portConstraint=eastwest;newEdgeStyle={&quot;curved&quot;:0,&quot;rounded&quot;:0};" vertex="1" parent="wH4gtBrT2uaNQ040a4KH-30">
          <mxGeometry x="30" y="551" width="10" height="80" as="geometry" />
        </mxCell>
        <mxCell id="wH4gtBrT2uaNQ040a4KH-32" value="MinIO" style="shape=umlLifeline;perimeter=lifelinePerimeter;whiteSpace=wrap;html=1;container=1;dropTarget=0;collapsible=0;recursiveResize=0;outlineConnect=0;portConstraint=eastwest;newEdgeStyle={&quot;curved&quot;:0,&quot;rounded&quot;:0};size=40;fillColor=#f5f5f5;fontColor=#333333;strokeColor=#666666;fontStyle=1;fontSize=13;" vertex="1" parent="1">
          <mxGeometry x="839" y="352" width="70" height="740" as="geometry" />
        </mxCell>
        <mxCell id="wH4gtBrT2uaNQ040a4KH-33" value="" style="html=1;points=[[0,0,0,0,5],[0,1,0,0,-5],[1,0,0,0,5],[1,1,0,0,-5]];perimeter=orthogonalPerimeter;outlineConnect=0;targetShapes=umlLifeline;portConstraint=eastwest;newEdgeStyle={&quot;curved&quot;:0,&quot;rounded&quot;:0};" vertex="1" parent="wH4gtBrT2uaNQ040a4KH-32">
          <mxGeometry x="30" y="301" width="10" height="30" as="geometry" />
        </mxCell>
        <mxCell id="wH4gtBrT2uaNQ040a4KH-34" value="" style="html=1;points=[[0,0,0,0,5],[0,1,0,0,-5],[1,0,0,0,5],[1,1,0,0,-5]];perimeter=orthogonalPerimeter;outlineConnect=0;targetShapes=umlLifeline;portConstraint=eastwest;newEdgeStyle={&quot;curved&quot;:0,&quot;rounded&quot;:0};" vertex="1" parent="wH4gtBrT2uaNQ040a4KH-32">
          <mxGeometry x="30" y="411" width="10" height="30" as="geometry" />
        </mxCell>
        <mxCell id="wH4gtBrT2uaNQ040a4KH-35" value="" style="html=1;points=[[0,0,0,0,5],[0,1,0,0,-5],[1,0,0,0,5],[1,1,0,0,-5]];perimeter=orthogonalPerimeter;outlineConnect=0;targetShapes=umlLifeline;portConstraint=eastwest;newEdgeStyle={&quot;curved&quot;:0,&quot;rounded&quot;:0};" vertex="1" parent="wH4gtBrT2uaNQ040a4KH-32">
          <mxGeometry x="30" y="601" width="10" height="30" as="geometry" />
        </mxCell>
        <mxCell id="wH4gtBrT2uaNQ040a4KH-36" value="请求AI模型" style="html=1;verticalAlign=bottom;endArrow=block;curved=0;rounded=0;" edge="1" parent="1" target="wH4gtBrT2uaNQ040a4KH-33">
          <mxGeometry x="-0.0062" width="80" relative="1" as="geometry">
            <mxPoint x="785" y="653" as="sourcePoint" />
            <mxPoint x="877" y="653" as="targetPoint" />
            <mxPoint as="offset" />
          </mxGeometry>
        </mxCell>
        <mxCell id="wH4gtBrT2uaNQ040a4KH-37" value="传输AI模型" style="html=1;verticalAlign=bottom;endArrow=open;dashed=1;endSize=8;curved=0;rounded=0;" edge="1" parent="1" source="wH4gtBrT2uaNQ040a4KH-33">
          <mxGeometry x="0.0021" relative="1" as="geometry">
            <mxPoint x="877" y="683" as="sourcePoint" />
            <mxPoint x="785" y="683" as="targetPoint" />
            <mxPoint as="offset" />
          </mxGeometry>
        </mxCell>
        <mxCell id="wH4gtBrT2uaNQ040a4KH-38" value="上传转换后模型" style="html=1;verticalAlign=bottom;endArrow=block;curved=0;rounded=0;" edge="1" parent="1" source="wH4gtBrT2uaNQ040a4KH-11" target="wH4gtBrT2uaNQ040a4KH-34">
          <mxGeometry x="-0.0062" width="80" relative="1" as="geometry">
            <mxPoint x="790" y="761" as="sourcePoint" />
            <mxPoint x="890" y="761" as="targetPoint" />
            <mxPoint as="offset" />
          </mxGeometry>
        </mxCell>
        <mxCell id="wH4gtBrT2uaNQ040a4KH-39" value="请求转换后模型信息" style="html=1;verticalAlign=bottom;endArrow=block;curved=0;rounded=0;" edge="1" parent="1" target="wH4gtBrT2uaNQ040a4KH-11">
          <mxGeometry x="-0.0081" width="80" relative="1" as="geometry">
            <mxPoint x="670" y="797" as="sourcePoint" />
            <mxPoint x="775" y="797" as="targetPoint" />
            <mxPoint as="offset" />
          </mxGeometry>
        </mxCell>
        <mxCell id="wH4gtBrT2uaNQ040a4KH-40" value="发送AI模型消息" style="html=1;verticalAlign=bottom;endArrow=block;curved=0;rounded=0;" edge="1" parent="1" source="wH4gtBrT2uaNQ040a4KH-3" target="wH4gtBrT2uaNQ040a4KH-29">
          <mxGeometry x="-0.0069" width="80" relative="1" as="geometry">
            <mxPoint x="675" y="882" as="sourcePoint" />
            <mxPoint x="980" y="882" as="targetPoint" />
            <mxPoint as="offset" />
          </mxGeometry>
        </mxCell>
        <mxCell id="wH4gtBrT2uaNQ040a4KH-41" value="转发AI模型消息" style="html=1;verticalAlign=bottom;endArrow=block;curved=0;rounded=0;" edge="1" parent="1" source="wH4gtBrT2uaNQ040a4KH-29" target="wH4gtBrT2uaNQ040a4KH-31">
          <mxGeometry x="-0.0051" width="80" relative="1" as="geometry">
            <mxPoint x="1054" y="902" as="sourcePoint" />
            <mxPoint x="1418.5" y="902" as="targetPoint" />
            <mxPoint as="offset" />
          </mxGeometry>
        </mxCell>
        <mxCell id="wH4gtBrT2uaNQ040a4KH-42" value="请求AI模型" style="html=1;verticalAlign=bottom;endArrow=block;curved=0;rounded=0;" edge="1" parent="1" source="wH4gtBrT2uaNQ040a4KH-31" target="wH4gtBrT2uaNQ040a4KH-35">
          <mxGeometry x="-0.0051" width="80" relative="1" as="geometry">
            <mxPoint x="1072" y="953" as="sourcePoint" />
            <mxPoint x="890" y="953" as="targetPoint" />
            <mxPoint as="offset" />
          </mxGeometry>
        </mxCell>
        <mxCell id="wH4gtBrT2uaNQ040a4KH-43" value="下载AI模型" style="html=1;verticalAlign=bottom;endArrow=open;dashed=1;endSize=8;curved=0;rounded=0;" edge="1" parent="1">
          <mxGeometry x="0.0021" relative="1" as="geometry">
            <mxPoint x="879" y="982" as="sourcePoint" />
            <mxPoint x="1054" y="982" as="targetPoint" />
            <mxPoint as="offset" />
          </mxGeometry>
        </mxCell>
        <mxCell id="wH4gtBrT2uaNQ040a4KH-44" value="Master" style="shape=umlLifeline;perimeter=lifelinePerimeter;whiteSpace=wrap;html=1;container=1;dropTarget=0;collapsible=0;recursiveResize=0;outlineConnect=0;portConstraint=eastwest;newEdgeStyle={&quot;curved&quot;:0,&quot;rounded&quot;:0};size=40;fillColor=#f5f5f5;fontColor=#333333;strokeColor=#666666;fontStyle=1;fontSize=13;" vertex="1" parent="1">
          <mxGeometry x="515" y="351" width="70" height="740" as="geometry" />
        </mxCell>
        <mxCell id="wH4gtBrT2uaNQ040a4KH-45" value="" style="html=1;points=[[0,0,0,0,5],[0,1,0,0,-5],[1,0,0,0,5],[1,1,0,0,-5]];perimeter=orthogonalPerimeter;outlineConnect=0;targetShapes=umlLifeline;portConstraint=eastwest;newEdgeStyle={&quot;curved&quot;:0,&quot;rounded&quot;:0};" vertex="1" parent="wH4gtBrT2uaNQ040a4KH-44">
          <mxGeometry x="30" y="80" width="10" height="50" as="geometry" />
        </mxCell>
        <mxCell id="wH4gtBrT2uaNQ040a4KH-46" value="发送部署上下文消息" style="html=1;verticalAlign=bottom;endArrow=block;curved=0;rounded=0;" edge="1" parent="1">
          <mxGeometry x="-0.0048" width="80" relative="1" as="geometry">
            <mxPoint x="554.9999999999999" y="462" as="sourcePoint" />
            <mxPoint x="660" y="461" as="targetPoint" />
            <mxPoint as="offset" />
          </mxGeometry>
        </mxCell>
      </root>
    </mxGraphModel>
  </diagram>
</mxfile>
